<svg width="225" height="219" xmlns="http://www.w3.org/2000/svg">
 <!-- Created with Method Draw - http://github.com/duopixel/Method-Draw/ -->
 <g>
  <title>background</title>
  <rect fill="#fff" id="canvas_background" height="221" width="227" y="-1" x="-1"/>
  <g display="none" overflow="visible" y="0" x="0" height="100%" width="100%" id="canvasGrid">
   <rect fill="url(#gridpattern)" stroke-width="0" y="0" x="0" height="100%" width="100%"/>
  </g>
 </g>
 <g>
  <title>Layer 1</title>
  <path transform="rotate(2 58.689308166504055,96.89039611816398) " id="svg_1" d="m67.326471,118.80332l-3.359017,-12.671245c0.984391,-0.930683 1.908336,-1.926513 2.780471,-2.992145l11.747924,3.620356c1.239123,-1.945127 2.305546,-4.011242 3.259714,-6.156466l-8.742942,-9.12069c0.418798,-1.340183 0.781468,-2.703633 1.040518,-4.108964l11.782464,-3.182935c0.08635,-1.17266 0.168383,-2.349974 0.168383,-3.550554s-0.08635,-2.373241 -0.168383,-3.545901l-11.782464,-3.182935c-0.263368,-1.405331 -0.626038,-2.768781 -1.040518,-4.108964l8.747259,-9.12069c-0.958485,-2.14057 -2.024909,-4.211339 -3.264032,-6.156466l-11.747924,3.615702c-0.867818,-1.060978 -1.796081,-2.056809 -2.780471,-2.992145l3.359017,-12.666591c-1.804716,-1.330876 -3.726004,-2.484923 -5.716373,-3.513327l-8.462304,9.427816c-1.239123,-0.451381 -2.508469,-0.837614 -3.812354,-1.121473l-2.948854,-12.703819c-1.092328,-0.088415 -2.180339,-0.181483 -3.294254,-0.181483s-2.201926,0.093068 -3.289937,0.181483l-2.953172,12.703819c-1.303886,0.283858 -2.568914,0.670092 -3.812354,1.121473l-8.462304,-9.427816c-1.986051,1.042365 -3.903022,2.191758 -5.707738,3.527287l3.359017,12.666591c-0.984391,0.930683 -1.912653,1.931167 -2.776154,2.987491l-11.752241,-3.620356c-1.239123,1.945127 -2.305546,4.015896 -3.259714,6.161119l8.747259,9.12069c-0.41448,1.340183 -0.77715,2.703633 -1.040518,4.108964l-11.786781,3.182935c-0.082033,1.17266 -0.168383,2.349974 -0.168383,3.545901s0.08635,2.373241 0.168383,3.550554l11.786781,3.182935c0.263368,1.405331 0.626038,2.768781 1.040518,4.108964l-8.747259,9.12069c0.954168,2.14057 2.020591,4.211339 3.259714,6.156466l11.752241,-3.620356c0.8635,1.065632 1.791763,2.056809 2.776154,2.992145l-3.359017,12.671245c1.804716,1.330876 3.726004,2.480269 5.712055,3.513327l8.462304,-9.427816c1.243441,0.451381 2.508469,0.842268 3.812354,1.121473l2.953172,12.699165c1.088011,0.093068 2.180339,0.181483 3.294254,0.181483s2.201926,-0.093068 3.294254,-0.181483l2.948854,-12.699165c1.303886,-0.283858 2.573231,-0.674745 3.812354,-1.121473l8.462304,9.427816c1.981734,-1.042365 3.903022,-2.191758 5.707738,-3.522634zm-24.229822,-22.341038c-8.103952,0 -14.67519,-7.082495 -14.67519,-15.816952s6.571238,-15.812299 14.67519,-15.812299s14.670873,7.077842 14.670873,15.812299s-6.566921,15.816952 -14.670873,15.816952zm66.886744,33.062503c0.082033,-2.545417 -0.25905,-5.137368 -0.993026,-7.696746l5.370973,-8.250502c-0.81169,-1.628695 -1.727001,-3.173628 -2.767519,-4.578959l-9.16174,2.070769c-1.847891,-1.693842 -3.950515,-3.015412 -6.199933,-3.960055l-2.637994,-9.674447c-1.666556,-0.316432 -3.354699,-0.488608 -5.06443,-0.493262l-4.205247,9.009008c-1.204583,0.251284 -2.409166,0.595637 -3.592162,1.084245c-1.109598,0.456035 -2.145799,1.023751 -3.138824,1.642655l-8.660909,-3.811146c-1.282298,1.219194 -2.452341,2.53611 -3.510129,3.964708l3.915975,9.157918c-1.118233,2.30344 -1.886748,4.783709 -2.240784,7.37566l-8.164397,4.932618c0.082033,1.805524 0.32813,3.611049 0.70807,5.421227l9.084025,2.415122c0.997343,2.438389 2.335769,4.62084 3.954832,6.482205l-1.519761,9.948998c1.381601,1.070285 2.849551,1.991661 4.37363,2.792048l7.404516,-6.142506c2.314181,0.656131 4.7363,0.907416 7.175689,0.698012l6.269013,7.478035c0.8635,-0.265245 1.722683,-0.549103 2.573231,-0.898109c0.755563,-0.307125 1.467951,-0.670092 2.180339,-1.037711l0.159748,-10.07464c1.964464,-1.577507 3.639654,-3.4761 4.973763,-5.612017l9.330122,-0.623557c0.65626,-1.670575 1.204583,-3.406299 1.588841,-5.188556l-7.205911,-6.431017zm-17.973762,9.339401c-5.18532,2.131263 -10.988043,-0.670092 -12.969777,-6.258841s0.617403,-11.847591 5.802723,-13.983507c5.18532,-2.131263 10.996678,0.670092 12.978412,6.258841c1.977416,5.58875 -0.626038,11.847591 -5.811358,13.983507z" stroke-width="1.5" stroke="#000" fill="#000000"/>
  <path transform="rotate(6 169.68930053710935,151.89039611816403) " id="svg_6" d="m178.326471,173.803316l-3.35902,-12.67124c0.98439,-0.93068 1.90834,-1.92651 2.78048,-2.99215l11.74792,3.62036c1.23912,-1.94513 2.30554,-4.01124 3.25971,-6.15647l-8.74294,-9.12069c0.4188,-1.34018 0.78147,-2.70363 1.04052,-4.10896l11.78246,-3.18293c0.08635,-1.17267 0.16839,-2.34998 0.16839,-3.55056s-0.08636,-2.37324 -0.16839,-3.5459l-11.78246,-3.18294c-0.26337,-1.40533 -0.62604,-2.76878 -1.04052,-4.10896l8.74726,-9.12069c-0.95849,-2.14057 -2.02491,-4.21134 -3.26403,-6.15647l-11.74792,3.61571c-0.86782,-1.06098 -1.79609,-2.05681 -2.78048,-2.99215l3.35902,-12.66659c-1.80472,-1.33088 -3.726,-2.48492 -5.71637,-3.51333l-8.46231,9.42782c-1.23912,-0.45138 -2.50847,-0.83762 -3.81235,-1.12147l-2.94886,-12.70382c-1.09232,-0.08842 -2.18033,-0.18149 -3.29425,-0.18149s-2.20193,0.09307 -3.28994,0.18149l-2.95317,12.70382c-1.30388,0.28385 -2.56891,0.67009 -3.81235,1.12147l-8.46231,-9.42782c-1.98605,1.04237 -3.90302,2.19176 -5.70773,3.52729l3.35901,12.66659c-0.98439,0.93068 -1.91265,1.93117 -2.77615,2.98749l-11.75224,-3.62035c-1.23913,1.94512 -2.30555,4.01589 -3.25972,6.16112l8.74726,9.12069c-0.41448,1.34018 -0.77715,2.70363 -1.04052,4.10896l-11.78678,3.18294c-0.08203,1.17266 -0.16838,2.34997 -0.16838,3.5459s0.08635,2.37324 0.16838,3.55055l11.78678,3.18294c0.26337,1.40533 0.62604,2.76878 1.04052,4.10896l-8.74726,9.12069c0.95417,2.14057 2.02059,4.21134 3.25972,6.15647l11.75224,-3.62036c0.8635,1.06563 1.79176,2.05681 2.77615,2.99215l-3.35901,12.67124c1.80471,1.33088 3.726,2.48027 5.71205,3.51333l8.46231,-9.42782c1.24344,0.45138 2.50846,0.84227 3.81235,1.12148l2.95317,12.69916c1.08801,0.09307 2.18034,0.18148 3.29426,0.18148s2.20192,-0.09306 3.29425,-0.18148l2.94885,-12.69916c1.30389,-0.28386 2.57324,-0.67475 3.81236,-1.12148l8.4623,9.42782c1.98174,-1.04237 3.90302,-2.19176 5.70774,-3.52264zm-24.22982,-22.34103c-8.10395,0 -14.67519,-7.0825 -14.67519,-15.81696s6.57124,-15.81229 14.67519,-15.81229s14.67087,7.07784 14.67087,15.81229s-6.56692,15.81696 -14.67087,15.81696zm66.88674,33.0625c0.08203,-2.54542 -0.25905,-5.13737 -0.99302,-7.69675l5.37097,-8.2505c-0.81169,-1.62869 -1.727,-3.17363 -2.76752,-4.57896l-9.16174,2.07077c-1.84789,-1.69384 -3.95051,-3.01541 -6.19993,-3.96005l-2.638,-9.67445c-1.66655,-0.31643 -3.3547,-0.48861 -5.06443,-0.49326l-4.20524,9.00901c-1.20459,0.25128 -2.40917,0.59563 -3.59217,1.08424c-1.10959,0.45604 -2.14579,1.02375 -3.13882,1.64266l-8.66091,-3.81115c-1.2823,1.2192 -2.45234,2.53611 -3.51013,3.96471l3.91598,9.15792c-1.11824,2.30344 -1.88675,4.78371 -2.24079,7.37566l-8.16439,4.93262c0.08203,1.80552 0.32813,3.61104 0.70807,5.42122l9.08402,2.41512c0.99734,2.43839 2.33577,4.62084 3.95483,6.48221l-1.51976,9.949c1.3816,1.07028 2.84955,1.99166 4.37363,2.79204l7.40452,-6.1425c2.31418,0.65613 4.7363,0.90741 7.17569,0.69801l6.26901,7.47804c0.8635,-0.26525 1.72268,-0.54911 2.57323,-0.89811c0.75556,-0.30713 1.46795,-0.67009 2.18034,-1.03771l0.15975,-10.07464c1.96446,-1.57751 3.63965,-3.4761 4.97376,-5.61202l9.33012,-0.62356c0.65626,-1.67057 1.20459,-3.4063 1.58884,-5.18855l-7.20591,-6.43102zm-17.97376,9.3394c-5.18532,2.13126 -10.98804,-0.67009 -12.96978,-6.25884s0.61741,-11.84759 5.80273,-13.98351c5.18532,-2.13126 10.99668,0.67009 12.97841,6.25884c1.97741,5.58875 -0.62604,11.84759 -5.81136,13.98351z" stroke-width="1.5" stroke="#000" fill="#bf0000"/>
  <path transform="rotate(-29 147.68930053710935,52.89039230346683) " id="svg_7" d="m156.326471,74.803316l-3.35902,-12.67124c0.98439,-0.93068 1.90834,-1.92651 2.78048,-2.99215l11.74792,3.62036c1.23912,-1.94513 2.30554,-4.01124 3.25971,-6.15647l-8.74294,-9.12069c0.4188,-1.34018 0.78147,-2.70363 1.04052,-4.10896l11.78246,-3.18293c0.08635,-1.17267 0.16839,-2.34998 0.16839,-3.55056s-0.08636,-2.37324 -0.16839,-3.5459l-11.78246,-3.18294c-0.26337,-1.40533 -0.62604,-2.76878 -1.04052,-4.10896l8.74726,-9.12069c-0.95849,-2.14057 -2.02491,-4.21134 -3.26403,-6.15647l-11.74792,3.61571c-0.86782,-1.06098 -1.79609,-2.05681 -2.78048,-2.99215l3.35902,-12.66659c-1.80472,-1.33088 -3.726,-2.48492 -5.71637,-3.51333l-8.46231,9.42782c-1.23912,-0.45138 -2.50847,-0.83762 -3.81235,-1.12147l-2.94886,-12.70382c-1.09232,-0.08842 -2.18033,-0.18149 -3.29425,-0.18149s-2.20193,0.09307 -3.28994,0.18149l-2.95317,12.70382c-1.30388,0.28385 -2.56891,0.67009 -3.81235,1.12147l-8.46231,-9.42782c-1.98605,1.04237 -3.90302,2.19176 -5.70773,3.52729l3.35901,12.66659c-0.98439,0.93068 -1.91265,1.93117 -2.77615,2.98749l-11.75224,-3.62035c-1.23913,1.94512 -2.30555,4.01589 -3.25972,6.16112l8.74726,9.12069c-0.41448,1.34018 -0.77715,2.70363 -1.04052,4.10896l-11.78678,3.18294c-0.08203,1.17266 -0.16838,2.34997 -0.16838,3.5459s0.08635,2.37324 0.16838,3.55055l11.78678,3.18294c0.26337,1.40533 0.62604,2.76878 1.04052,4.10896l-8.74726,9.12069c0.95417,2.14057 2.02059,4.21134 3.25972,6.15647l11.75224,-3.62036c0.8635,1.06563 1.79176,2.05681 2.77615,2.99215l-3.35901,12.67124c1.80471,1.33088 3.726,2.48027 5.71205,3.51333l8.46231,-9.42782c1.24344,0.45138 2.50846,0.84227 3.81235,1.12148l2.95317,12.69916c1.08801,0.09307 2.18034,0.18148 3.29426,0.18148s2.20192,-0.09306 3.29425,-0.18148l2.94885,-12.69916c1.30389,-0.28386 2.57324,-0.67475 3.81236,-1.12148l8.4623,9.42782c1.98174,-1.04237 3.90302,-2.19176 5.70774,-3.52264zm-24.22982,-22.34103c-8.10395,0 -14.67519,-7.0825 -14.67519,-15.81696s6.57124,-15.81229 14.67519,-15.81229s14.67087,7.07784 14.67087,15.81229s-6.56692,15.81696 -14.67087,15.81696zm66.88674,33.0625c0.08203,-2.54542 -0.25905,-5.13737 -0.99302,-7.69675l5.37097,-8.2505c-0.81169,-1.62869 -1.727,-3.17363 -2.76752,-4.57896l-9.16174,2.07077c-1.84789,-1.69384 -3.95051,-3.01541 -6.19993,-3.96005l-2.638,-9.67445c-1.66655,-0.31643 -3.3547,-0.48861 -5.06443,-0.49326l-4.20524,9.00901c-1.20459,0.25128 -2.40917,0.59563 -3.59217,1.08424c-1.10959,0.45604 -2.14579,1.02375 -3.13882,1.64266l-8.66091,-3.81115c-1.2823,1.2192 -2.45234,2.53611 -3.51013,3.96471l3.91598,9.15792c-1.11824,2.30344 -1.88675,4.78371 -2.24079,7.37566l-8.16439,4.93262c0.08203,1.80552 0.32813,3.61104 0.70807,5.42122l9.08402,2.41512c0.99734,2.43839 2.33577,4.62084 3.95483,6.48221l-1.51976,9.949c1.3816,1.07028 2.84955,1.99166 4.37363,2.79204l7.40452,-6.1425c2.31418,0.65613 4.7363,0.90741 7.17569,0.69801l6.26901,7.47804c0.8635,-0.26525 1.72268,-0.54911 2.57323,-0.89811c0.75556,-0.30713 1.46795,-0.67009 2.18034,-1.03771l0.15975,-10.07464c1.96446,-1.57751 3.63965,-3.4761 4.97376,-5.61202l9.33012,-0.62356c0.65626,-1.67057 1.20459,-3.4063 1.58884,-5.18855l-7.20591,-6.43102zm-17.97376,9.3394c-5.18532,2.13126 -10.98804,-0.67009 -12.96978,-6.25884s0.61741,-11.84759 5.80273,-13.98351c5.18532,-2.13126 10.99668,0.67009 12.97841,6.25884c1.97741,5.58875 -0.62604,11.84759 -5.81136,13.98351z" stroke-width="1.5" stroke="#000" fill="#ffff00"/>
 </g>
</svg>